<?xml version="1.0" encoding="UTF-8"?><svg id="Layer_1" xmlns="http://www.w3.org/2000/svg" width="1600" height="900" xmlns:xlink="http://www.w3.org/1999/xlink" viewBox="0 0 1600 900"><defs><style>.cls-1,.cls-2,.cls-3,.cls-4,.cls-5,.cls-6,.cls-7,.cls-8,.cls-9,.cls-10,.cls-11{stroke-miterlimit:10;}.cls-1,.cls-2,.cls-3,.cls-4,.cls-8,.cls-9,.cls-10{stroke:#000;}.cls-1,.cls-10{stroke-width:3px;}.cls-3,.cls-12{fill:#006837;}.cls-4,.cls-5,.cls-6,.cls-9,.cls-10,.cls-13{fill:#fff;}.cls-5{stroke:#d00000;}.cls-6{stroke:#fff;}.cls-7{stroke:#9f3100;}.cls-7,.cls-14{fill:#9f3100;}.cls-8{stroke-width:.5px;}.cls-9{stroke-width:6px;}.cls-15,.cls-16,.cls-17,.cls-18,.cls-19,.cls-20,.cls-21,.cls-22,.cls-23,.cls-24,.cls-14,.cls-25,.cls-26,.cls-13,.cls-27,.cls-28,.cls-12,.cls-29,.cls-30{stroke-width:0px;}.cls-11{fill:url(#linear-gradient);stroke:url(#linear-gradient-2);}.cls-16{fill:#29abe2;}.cls-17{fill:#a37c52;}.cls-18{fill:#0a5f00;}.cls-19{fill:#aa272d;}.cls-20{fill:#d43b00;}.cls-21{fill:#df1f00;}.cls-22{fill:#be272d;}.cls-23{fill:#d1242a;}.cls-24{fill:#d00000;}.cls-25{fill:#c3997f;}.cls-26{fill:#a1272d;}.cls-27{fill:#fffaaa;}.cls-28{fill:#005777;}.cls-29{fill:#008a03;}.cls-30{fill:#0071bc;}</style><linearGradient id="linear-gradient" x1="-407.71" y1="-83.44" x2="1514.95" y2="-83.44" gradientTransform="translate(366.85 396.71) rotate(-.36) scale(.78 1.78) skewX(-.65)" gradientUnits="userSpaceOnUse"><stop offset="0" stop-color="#cce0f4"/><stop offset="0" stop-color="#c2dcf4"/><stop offset="0" stop-color="#a9d2f4"/><stop offset="0" stop-color="#7fc2f4"/><stop offset="0" stop-color="#46acf4"/><stop offset="0" stop-color="#3fa9f5"/><stop offset=".26" stop-color="#0071bc"/><stop offset=".63" stop-color="#1b1464"/></linearGradient><linearGradient id="linear-gradient-2" x1="-18.06" y1="-147.1" x2="1902.64" y2="-147.1" gradientTransform="translate(1538.31 -16.37) rotate(-180) scale(.78 1.78)" gradientUnits="userSpaceOnUse"><stop offset="0" stop-color="#0500d4"/><stop offset=".35" stop-color="#0075bd"/><stop offset=".44" stop-color="#0075be"/><stop offset=".65" stop-color="#0073bb"/><stop offset="1" stop-color="#bcdaf1"/><stop offset="1" stop-color="#1e9cd7"/></linearGradient></defs><rect class="cls-11" x="48.49" y="-715.79" width="1503.58" height="1922.54" transform="translate(551.62 1044.78) rotate(-89.77)"/><path class="cls-13" d="m1502.29,176.77c3.92,0,7.68-3.45,7.5-7.5s-3.3-7.5-7.5-7.5c-3.92,0-7.68,3.45-7.5,7.5s3.3,7.5,7.5,7.5h0Z"/><path class="cls-13" d="m1292.29,93.77c3.92,0,7.68-3.45,7.5-7.5s-3.3-7.5-7.5-7.5c-3.92,0-7.68,3.45-7.5,7.5s3.3,7.5,7.5,7.5h0Z"/><path class="cls-13" d="m1002.29,143.77c3.92,0,7.68-3.45,7.5-7.5s-3.3-7.5-7.5-7.5c-3.92,0-7.68,3.45-7.5,7.5s3.3,7.5,7.5,7.5h0Z"/><path class="cls-13" d="m109.29,634.77c3.92,0,7.68-3.45,7.5-7.5s-3.3-7.5-7.5-7.5c-3.92,0-7.68,3.45-7.5,7.5s3.3,7.5,7.5,7.5h0Z"/><path class="cls-13" d="m136.29,154.77c3.92,0,7.68-3.45,7.5-7.5s-3.3-7.5-7.5-7.5c-3.92,0-7.68,3.45-7.5,7.5s3.3,7.5,7.5,7.5h0Z"/><path class="cls-13" d="m32.29,598.77c3.92,0,7.68-3.45,7.5-7.5s-3.3-7.5-7.5-7.5c-3.92,0-7.68,3.45-7.5,7.5s3.3,7.5,7.5,7.5h0Z"/><path class="cls-13" d="m1292.29,254.77c3.92,0,7.68-3.45,7.5-7.5s-3.3-7.5-7.5-7.5c-3.92,0-7.68,3.45-7.5,7.5s3.3,7.5,7.5,7.5h0Z"/><path class="cls-13" d="m1399.29,365.77c3.92,0,7.68-3.45,7.5-7.5s-3.3-7.5-7.5-7.5c-3.92,0-7.68,3.45-7.5,7.5s3.3,7.5,7.5,7.5h0Z"/><path class="cls-13" d="m1430.29,698.77c3.92,0,7.68-3.45,7.5-7.5s-3.3-7.5-7.5-7.5c-3.92,0-7.68,3.45-7.5,7.5s3.3,7.5,7.5,7.5h0Z"/><path class="cls-13" d="m1163.29,656.77c3.92,0,7.68-3.45,7.5-7.5s-3.3-7.5-7.5-7.5c-3.92,0-7.68,3.45-7.5,7.5s3.3,7.5,7.5,7.5h0Z"/><path class="cls-16" d="m1142.29,81.77c3.92,0,7.68-3.45,7.5-7.5s-3.3-7.5-7.5-7.5c-3.92,0-7.68,3.45-7.5,7.5s3.3,7.5,7.5,7.5h0Z"/><path class="cls-16" d="m1529.29,373.77c3.92,0,7.68-3.45,7.5-7.5s-3.3-7.5-7.5-7.5c-3.92,0-7.68,3.45-7.5,7.5s3.3,7.5,7.5,7.5h0Z"/><path class="cls-16" d="m20.29,104.77c3.92,0,7.68-3.45,7.5-7.5s-3.3-7.5-7.5-7.5c-3.92,0-7.68,3.45-7.5,7.5s3.3,7.5,7.5,7.5h0Z"/><path class="cls-16" d="m1514.29,772.77c3.92,0,7.68-3.45,7.5-7.5s-3.3-7.5-7.5-7.5c-3.92,0-7.68,3.45-7.5,7.5s3.3,7.5,7.5,7.5h0Z"/><path class="cls-16" d="m817.29,7.77c3.92,0,7.68-3.45,7.5-7.5s-3.3-7.5-7.5-7.5c-3.92,0-7.68,3.45-7.5,7.5s3.3,7.5,7.5,7.5h0Z"/><path class="cls-16" d="m109.29,785.77c3.92,0,7.68-3.45,7.5-7.5s-3.3-7.5-7.5-7.5c-3.92,0-7.68,3.45-7.5,7.5s3.3,7.5,7.5,7.5h0Z"/><path class="cls-28" d="m-309.93,887.2h46.96v-71.35h78v71.35h47.12l-6.27-58.12h42.63v58.12h61.55l-1.89-119.72H88.84v119.72h27.12l-7.41-84.08h74.72v84.08h77.23v-38.25h35.55v38.25l-1.46,88.31H-309.93c165.34-37.94,270.11-147.92,0-88.31Z"/><rect class="cls-27" x="3.19" y="809.59" width="11.52" height="5.9"/><rect class="cls-27" x="52.08" y="785.11" width="11.15" height="11.73"/><rect class="cls-27" x="23.7" y="791.28" width="5.34" height="5.85"/><rect class="cls-27" x="52.35" y="815.86" width="11.15" height="11.73"/><rect class="cls-27" x="158.55" y="815.86" width="11.15" height="11.73"/><rect class="cls-27" x="120.62" y="818.49" width="11.15" height="5.75"/><rect class="cls-27" x="144.22" y="838.6" width="5.34" height="5.75"/><polygon class="cls-28" points="293.2 885.21 340.16 885.21 340.16 813.86 418.16 813.86 418.16 885.21 465.28 885.21 459.01 827.09 501.64 827.09 501.64 885.21 563.18 885.21 561.29 765.49 691.98 765.49 691.98 885.21 719.1 885.21 711.69 801.13 786.41 801.13 786.41 885.21 863.64 885.21 863.64 846.96 899.19 846.96 899.19 885.21 897.74 973.52 293.2 973.52 293.2 885.21"/><rect class="cls-27" x="576.12" y="783.34" width="11.15" height="11.73"/><rect class="cls-27" x="606.33" y="807.6" width="11.52" height="5.9"/><rect class="cls-27" x="655.21" y="783.12" width="11.15" height="11.73"/><rect class="cls-27" x="578.21" y="824.54" width="11.15" height="11.73"/><rect class="cls-27" x="466.95" y="833.29" width="6.76" height="5.58"/><rect class="cls-27" x="485.9" y="839.83" width="8.88" height="7.78"/><rect class="cls-27" x="352.73" y="830.21" width="11.15" height="11.73"/><rect class="cls-27" x="394.2" y="827.77" width="11.15" height="5.85"/><rect class="cls-27" x="378.18" y="841.76" width="5.34" height="5.85"/><rect class="cls-27" x="626.83" y="789.29" width="5.34" height="5.85"/><rect class="cls-27" x="655.48" y="813.88" width="11.15" height="11.73"/><rect class="cls-27" x="761.68" y="813.88" width="11.15" height="11.73"/><rect class="cls-27" x="723.75" y="816.5" width="11.15" height="5.75"/><rect class="cls-27" x="747.35" y="836.61" width="5.34" height="5.75"/><polygon class="cls-28" points="781.11 887.63 828.07 887.63 828.07 816.29 906.07 816.29 906.07 887.63 953.19 887.63 946.92 829.51 989.55 829.51 989.55 887.63 1051.09 887.63 1049.2 767.91 1179.89 767.91 1179.89 887.63 1207.01 887.63 1199.6 803.56 1274.32 803.56 1274.32 887.63 1351.55 887.63 1351.55 849.39 1387.1 849.39 1387.1 887.63 1385.65 975.95 781.11 975.95 781.11 887.63"/><rect class="cls-27" x="1064.03" y="785.77" width="11.15" height="11.73"/><rect class="cls-27" x="1094.24" y="810.03" width="11.52" height="5.9"/><rect class="cls-27" x="1143.12" y="785.55" width="11.15" height="11.73"/><rect class="cls-27" x="1066.12" y="826.97" width="11.15" height="11.73"/><rect class="cls-27" x="954.86" y="835.71" width="6.76" height="5.58"/><rect class="cls-27" x="973.81" y="842.25" width="8.88" height="7.78"/><rect class="cls-27" x="840.64" y="832.64" width="11.15" height="11.73"/><rect class="cls-27" x="882.11" y="830.19" width="11.15" height="5.85"/><rect class="cls-27" x="866.1" y="844.18" width="5.34" height="5.85"/><rect class="cls-27" x="1114.74" y="791.72" width="5.34" height="5.85"/><rect class="cls-27" x="1143.39" y="816.3" width="11.15" height="11.73"/><rect class="cls-27" x="1249.59" y="816.3" width="11.15" height="11.73"/><rect class="cls-27" x="1211.67" y="818.92" width="11.15" height="5.75"/><rect class="cls-27" x="1235.27" y="839.04" width="5.34" height="5.75"/><polygon class="cls-28" points="1259.31 870.93 1298.75 870.93 1298.75 805.23 1364.26 805.23 1364.26 870.93 1403.84 870.93 1398.58 817.4 1434.38 817.4 1434.38 870.93 1486.07 870.93 1484.48 760.68 1594.25 760.68 1594.25 870.93 1617.03 870.93 1610.81 793.5 1673.57 793.5 1673.57 870.93 1738.44 870.93 1738.44 835.71 1768.3 835.71 1768.3 870.93 1767.07 952.26 1259.31 952.26 1259.31 870.93"/><rect class="cls-27" x="1496.94" y="777.12" width="9.36" height="10.8"/><rect class="cls-27" x="1522.31" y="799.46" width="9.67" height="5.44"/><rect class="cls-27" x="1563.37" y="776.92" width="9.36" height="10.8"/><rect class="cls-27" x="1498.7" y="815.06" width="9.36" height="10.8"/><rect class="cls-27" x="1405.25" y="823.11" width="5.68" height="5.14"/><rect class="cls-27" x="1421.17" y="829.14" width="7.46" height="7.16"/><rect class="cls-27" x="1309.31" y="820.28" width="9.36" height="10.8"/><rect class="cls-27" x="1344.14" y="818.03" width="9.36" height="5.39"/><rect class="cls-27" x="1330.69" y="830.91" width="4.49" height="5.39"/><rect class="cls-27" x="1539.53" y="782.6" width="4.49" height="5.39"/><rect class="cls-27" x="1563.6" y="805.24" width="9.36" height="10.8"/><path class="cls-13" d="m740.52,826.67c3.92,0,7.68-3.45,7.5-7.5s-3.3-7.5-7.5-7.5c-3.92,0-7.68,3.45-7.5,7.5s3.3,7.5,7.5,7.5h0Z"/><path class="cls-13" d="m382.52,656.67c3.92,0,7.68-3.45,7.5-7.5s-3.3-7.5-7.5-7.5c-3.92,0-7.68,3.45-7.5,7.5s3.3,7.5,7.5,7.5h0Z"/><path class="cls-13" d="m131.52,458.67c3.92,0,7.68-3.45,7.5-7.5s-3.3-7.5-7.5-7.5c-3.92,0-7.68,3.45-7.5,7.5s3.3,7.5,7.5,7.5h0Z"/><path class="cls-13" d="m977.52,826.67c3.92,0,7.68-3.45,7.5-7.5s-3.3-7.5-7.5-7.5c-3.92,0-7.68,3.45-7.5,7.5s3.3,7.5,7.5,7.5h0Z"/><path class="cls-13" d="m1399.52,844.67c3.92,0,7.68-3.45,7.5-7.5s-3.3-7.5-7.5-7.5c-3.92,0-7.68,3.45-7.5,7.5s3.3,7.5,7.5,7.5h0Z"/><path class="cls-13" d="m755.65,366.11c3.92,0,7.68-3.45,7.5-7.5s-3.3-7.5-7.5-7.5c-3.92,0-7.68,3.45-7.5,7.5s3.3,7.5,7.5,7.5h0Z"/><path class="cls-13" d="m346.65,366.11c3.92,0,7.68-3.45,7.5-7.5s-3.3-7.5-7.5-7.5c-3.92,0-7.68,3.45-7.5,7.5s3.3,7.5,7.5,7.5h0Z"/><path class="cls-13" d="m594.65,504.11c3.92,0,7.68-3.45,7.5-7.5s-3.3-7.5-7.5-7.5c-3.92,0-7.68,3.45-7.5,7.5s3.3,7.5,7.5,7.5h0Z"/><path class="cls-13" d="m806.65,224.11c3.92,0,7.68-3.45,7.5-7.5s-3.3-7.5-7.5-7.5c-3.92,0-7.68,3.45-7.5,7.5s3.3,7.5,7.5,7.5h0Z"/><path class="cls-13" d="m526.65,231.11c3.92,0,7.68-3.45,7.5-7.5s-3.3-7.5-7.5-7.5c-3.92,0-7.68,3.45-7.5,7.5s3.3,7.5,7.5,7.5h0Z"/><path class="cls-13" d="m846.65,504.11c3.92,0,7.68-3.45,7.5-7.5s-3.3-7.5-7.5-7.5c-3.92,0-7.68,3.45-7.5,7.5s3.3,7.5,7.5,7.5h0Z"/><path class="cls-13" d="m846.65,504.11c3.92,0,7.68-3.45,7.5-7.5s-3.3-7.5-7.5-7.5c-3.92,0-7.68,3.45-7.5,7.5s3.3,7.5,7.5,7.5h0Z"/><path class="cls-13" d="m1021.65,733.11c3.92,0,7.68-3.45,7.5-7.5s-3.3-7.5-7.5-7.5c-3.92,0-7.68,3.45-7.5,7.5s3.3,7.5,7.5,7.5h0Z"/><path class="cls-13" d="m1189.65,556.11c3.92,0,7.68-3.45,7.5-7.5s-3.3-7.5-7.5-7.5c-3.92,0-7.68,3.45-7.5,7.5s3.3,7.5,7.5,7.5h0Z"/><path class="cls-13" d="m1130.65,318.11c3.92,0,7.68-3.45,7.5-7.5s-3.3-7.5-7.5-7.5c-3.92,0-7.68,3.45-7.5,7.5s3.3,7.5,7.5,7.5h0Z"/><path class="cls-13" d="m654.65,686.11c3.92,0,7.68-3.45,7.5-7.5s-3.3-7.5-7.5-7.5c-3.92,0-7.68,3.45-7.5,7.5s3.3,7.5,7.5,7.5h0Z"/><path class="cls-5" d="m312.33,569.13c-3.83,0-7.34-2.32-10.53-6.96-21.48-31.36-45.09-53.11-70.83-65.26.78,32.13,1.17,49.97,1.17,53.5,0,6.29-1.42,11.62-4.25,15.98-2.84,4.36-6.38,6.54-10.63,6.54s-7.8-2.18-10.63-6.54c-2.84-4.36-4.25-9.69-4.25-15.98,0-8.28.07-20.68.21-37.18.14-16.51.21-28.9.21-37.18l.21-133.67c0-7.18,1.38-13.69,4.15-19.54,3.62-7.51,8.61-10.88,15-10.1,17.23,1.99,26.05,3.04,26.48,3.15,9.92,1.88,18.36,5.58,25.31,11.1,30.27,23.74,45.41,53.17,45.41,88.28,0,14.47-3.17,27.25-9.52,38.34-6.35,11.1-15.86,20.46-28.55,28.08,18.79,16.34,32.93,33.02,42.43,50.02,2.48,4.42,3.72,9.33,3.72,14.74,0,6.19-1.49,11.51-4.47,15.98-2.98,4.47-6.52,6.71-10.63,6.71Zm-68.17-208.36c-.57-.11-4.72-.55-12.44-1.33v87.95c1.77.11,3.33.17,4.68.17,17.37,0,30.24-3.37,38.6-10.1,3.62-2.87,6.93-6.68,9.94-11.43,3.01-4.75,4.52-8.34,4.52-10.77,0-12.37-5.03-24.29-15.1-35.78-9.57-10.82-19.64-17.06-30.2-18.72Z"/><path class="cls-24" d="m449.94,354.8c-1.42,0-2.91-.33-4.47-.99-11.49-4.86-22.65-7.29-33.5-7.29-5.32,0-11.02.66-17.12,1.99-6.1,1.32-12.59,3.31-19.46,5.96,0,14.69-.32,36.5-.96,65.42,3.97-.44,17.83-2.48,41.58-6.13,13.54-2.1,22.12-3.15,25.74-3.15,4.18,0,7.76,2.07,10.74,6.21,2.98,4.14,4.47,9.63,4.47,16.48,0,13.14-4.5,20.6-13.51,22.36-5.67.66-14.14,1.77-25.42,3.31-10.07,1.77-25.24,3.92-45.52,6.46-.5,14.02-.74,25.34-.74,33.96,0,21.64.81,33.95,2.45,36.94.78,1.44,5.25,2.15,13.4,2.15,4.4,0,11.02-.17,19.89-.5,8.86-.33,15.49-.5,19.89-.5,1.42,0,3.51-.33,6.27-.99,2.77-.66,4.82-.99,6.17-.99,4.11,0,7.62,1.82,10.53,5.47,3.33,4.09,5,9.83,5,17.23,0,12.37-4.15,19.76-12.44,22.2-7.09,2.1-21.8,3.15-44.13,3.15s-38.18-4.86-45.2-14.58c-7.73-10.71-11.59-33.9-11.59-69.57,0-14.8.69-37.02,2.07-66.67s2.07-51.81,2.07-66.5c0-3.86-.36-9.58-1.06-17.14-.71-7.56-1.06-13.28-1.06-17.14,0-16.78,4.96-25.18,14.89-25.18,3.12,0,5.99,1.38,8.61,4.14,8.22-3.2,16.04-5.6,23.45-7.21,7.41-1.6,14.41-2.4,21-2.4,17.87,0,32.15,3.2,42.86,9.61,6.52,3.87,9.78,10.88,9.78,21.04,0,5.74-1.28,10.82-3.83,15.24-2.84,5.08-6.45,7.62-10.85,7.62Z"/><path class="cls-24" d="m498.01,568.8c-4.18-.11-7.69-2.34-10.53-6.71-2.84-4.36-4.25-9.63-4.25-15.82,0-11.04.34-27.6,1.01-49.69.67-22.08,1.01-38.65,1.01-49.69,0-12.26-.16-30.64-.48-55.16-.32-24.51-.48-42.9-.48-55.16,0-6.07,1.88-12.12,5.64-18.14,3.76-6.02,7.76-9.03,12.02-9.03,2.34,0,8.22,3.42,17.65,10.27,10.99,8.17,17.51,12.75,19.57,13.75,20.77,10.49,38.5,26.72,53.17,48.7,17.51,26.17,26.27,55.1,26.27,86.79,0,19.1-3.01,37.27-9.04,54.49-6.03,17.56-14.29,31.64-24.78,42.24-11.77,11.92-28.32,17.89-49.66,17.89-5.18,0-11.13-1.16-17.87-3.48-8.15-2.87-14.57-6.62-19.25-11.26Zm59.77-170.27c-6.88-6.73-21.62-17.33-44.24-31.8v163.98c2.76,2.76,5.94,4.83,9.52,6.21,3.58,1.38,7.57,2.07,11.96,2.07,15.31,0,26.3-3.31,32.97-9.94,6.31-6.29,11.33-14.85,15.05-25.67,3.72-10.82,5.58-22.08,5.58-33.79,0-27.38-10.28-51.07-30.84-71.06Z"/><path class="cls-5" d="m846.93,363.75c-1.28,0-3.3-.19-6.06-.58-2.77-.39-5-.58-6.7-.58h-8.3c-.07-1.88-.11,2.04-.11,11.76,0,79.06-3.58,136.65-10.74,172.75-5.25,26.61-14.78,39.92-28.61,39.92s-26.23-7.07-39.14-21.2c-14.61-15.79-21.91-34.34-21.91-55.65,0-17.23,5-25.84,15-25.84s14.99,8.5,14.99,25.51c0,6.52,3.6,13.5,10.79,20.95,7.2,7.45,13.95,11.18,20.26,11.18,2.55,0,4.39-7.34,5.53-22.03.28-3.53,1.06-20.7,2.34-51.51,1.06-25.18,1.6-56.54,1.6-94.08,0-1.54-.11-5.13-.32-10.77l-2.45.17c-3.12.22-7.3.17-12.55-.17-6.31-.44-10.49-.66-12.55-.66-4.18,0-7.73-1.99-10.63-5.96-3.12-4.31-4.68-9.88-4.68-16.73,0-15.02,6.34-22.53,19.04-22.53,2.41,0,5.99.14,10.74.41,4.75.28,8.29.41,10.63.41,4.47,0,11.15-.39,20.05-1.16,8.9-.77,15.58-1.16,20.05-1.16,19,0,28.5,8.23,28.5,24.68,0,5.74-1.28,10.88-3.83,15.4-2.91,4.97-6.56,7.45-10.95,7.45Z"/><path class="cls-24" d="m987.21,538.49c-5.18,10.93-11.42,20.04-18.72,27.33-8.93,8.83-18.12,13.25-27.54,13.25-18.08,0-31.51-5.32-40.3-15.95-18.58-22.45-27.86-61.45-27.86-116.99,0-5.32.18-13.23.53-23.76.35-10.52.53-18.44.53-23.76,0-4.23.07-10.55.21-18.95.14-8.41.21-14.73.21-18.96,0-8.67,1.03-16.87,3.08-24.57,2.76-10.2,6.63-15.29,11.59-15.29,3.9,0,7.34,1.95,10.32,5.84,3.26,4.11,4.89,9.4,4.89,15.89s-.05,15.48-.16,27.97c-.11,12.48-.16,21.86-.16,28.12,0,5.19-.18,13.02-.53,23.5-.36,10.48-.53,18.32-.53,23.51,0,16.75,1.28,32.31,3.83,46.68,2.98,17.18,7.34,29.18,13.08,35.99,2.98,3.57,10.07,5.46,21.27,5.67,18.72.44,31.34-24.4,37.86-74.54,3.4-25.95,5.11-62.39,5.11-109.32,0-6.18,1.17-12.15,3.51-17.89,3.19-7.62,7.73-11.43,13.61-11.43,4.82,0,8.44,2.76,10.85,8.28,1.84,4.09,2.76,8.61,2.76,13.58,0,43.62-1.31,77.63-3.93,102.03-3.97,37.66-11.8,68.9-23.5,93.75Z"/><path class="cls-24" d="m1135.77,560.85c-8.37,5.74-21.31,10.88-38.82,15.4-16.02,4.2-29.18,6.29-39.46,6.29-17.37,0-26.05-11.87-26.05-35.61,0,1.88.71-15.62,2.13-52.51,1.84-47.92,2.76-101.25,2.76-160,0-6.29,1.4-11.65,4.2-16.07,2.8-4.42,6.33-6.62,10.58-6.62s7.8,2.21,10.63,6.62c2.83,4.42,4.25,9.77,4.25,16.07,0,58.86-.96,113.07-2.87,162.65-.64,8.84-1.31,22.36-2.02,40.58,16.8-.44,38.35-6.85,64.66-19.21,1.63-.77,3.19-1.16,4.68-1.16,4.47,0,8.08,2.54,10.85,7.62,2.48,4.53,3.72,9.61,3.72,15.24,0,9.5-3.08,16.4-9.25,20.7Z"/><path class="cls-24" d="m1262.86,354.8c-1.42,0-2.91-.33-4.47-.99-11.49-4.86-22.65-7.29-33.5-7.29-5.32,0-11.03.66-17.12,1.99-6.1,1.32-12.58,3.31-19.46,5.96,0,14.69-.32,36.5-.96,65.42,3.97-.44,17.83-2.48,41.58-6.13,13.54-2.1,22.12-3.15,25.74-3.15,4.18,0,7.76,2.07,10.74,6.21,2.98,4.14,4.47,9.63,4.47,16.48,0,13.14-4.5,20.6-13.51,22.36-5.67.66-14.14,1.77-25.42,3.31-10.07,1.77-25.24,3.92-45.52,6.46-.5,14.02-.75,25.34-.75,33.96,0,21.64.81,33.95,2.45,36.94.78,1.44,5.25,2.15,13.4,2.15,4.4,0,11.02-.17,19.89-.5,8.86-.33,15.49-.5,19.89-.5,1.42,0,3.51-.33,6.28-.99,2.76-.66,4.82-.99,6.17-.99,4.11,0,7.62,1.82,10.53,5.47,3.33,4.09,5,9.83,5,17.23,0,12.37-4.15,19.76-12.44,22.2-7.09,2.1-21.8,3.15-44.13,3.15s-38.18-4.86-45.2-14.58c-7.73-10.71-11.59-33.9-11.59-69.57,0-14.8.69-37.02,2.07-66.67s2.07-51.81,2.07-66.5c0-3.86-.36-9.58-1.06-17.14-.71-7.56-1.06-13.28-1.06-17.14,0-16.78,4.96-25.18,14.89-25.18,3.12,0,5.99,1.38,8.61,4.14,8.22-3.2,16.04-5.6,23.45-7.21,7.41-1.6,14.41-2.4,21-2.4,17.87,0,32.15,3.2,42.86,9.61,6.52,3.87,9.78,10.88,9.78,21.04,0,5.74-1.28,10.82-3.83,15.24-2.84,5.08-6.45,7.62-10.85,7.62Z"/><path class="cls-24" d="m1449.07,526.4c0,5.52-.6,14.24-1.81,26.17-1.42,14.24-6.59,21.37-15.53,21.37-4.96,0-10.57-4.36-16.8-13.08-27.3-38.32-58.1-92.03-92.42-161.16-.43,28.71-.64,46.32-.64,52.84,0,8.72.12,21.86.37,39.42.25,17.56.37,30.7.37,39.42,0,32.58-5.1,48.86-15.31,48.86-5.18,0-9.32-2.48-12.44-7.45-2.77-4.42-4.15-9.77-4.15-16.07,0-4.42.23-11.1.69-20.04.46-8.94.69-15.62.69-20.04,0-6.51.14-16.29.43-29.32.28-13.03.43-22.8.43-29.32,0-6.96-.11-17.45-.32-31.47-.21-14.02-.32-24.51-.32-31.47s-.42-16.51-1.28-29.65c-.85-13.14-1.28-23.02-1.28-29.65s1.82-12.53,5.48-17.72c3.65-5.19,7.82-7.79,12.5-7.79,5.25,0,11.06,7.07,17.44,21.2,32.19,71.55,63.95,129.91,95.29,175.07.07-3.53.11-11.93.11-25.18,0-54.44-.36-91.15-1.06-110.15-.14-3.2-.6-9.16-1.38-17.89-.71-7.73-1.06-13.8-1.06-18.22,0-15.24,5.17-22.86,15.53-22.86,11.56,0,17.33,27.77,17.33,83.31,0,1.22-.07,9.94-.21,26.17-.43,56.09-.64,90.99-.64,104.68Z"/><polyline class="cls-21" points="779 540.83 796.5 584.43 802.06 578.72 786.63 542.3"/><polyline class="cls-21" points="792.48 506.53 815.51 544.79 817.38 533.01 793.29 493.29"/><polyline class="cls-21" points="795.69 438.76 822.2 478.49 823.8 466.8 795.69 423.18"/><polyline class="cls-21" points="795.69 380.33 825.41 421.62 825.44 408.47 795.69 367.87"/><polyline class="cls-21" points="755.9 326.31 783.65 363.98 794.09 363.98 761.96 319.57"/><polyline class="cls-21" points="806.94 318.02 840.45 363.2 850.89 363.2 815.77 317.24"/><polyline class="cls-21" points="767.59 532.24 757.95 575.86 752.33 570.41 761.96 526"/><polyline class="cls-21" points="755.54 504.97 731.13 538.17 728 531.39 753.52 497.24"/><polyline class="cls-21" points="202.22 501.86 231.93 545.48 231.13 555.61 203.02 515.1"/><polyline class="cls-21" points="201.94 442.64 247.99 506.53 230.85 496.39 202.75 455.89"/><polyline class="cls-21" points="202.61 386.16 231.93 428.63 231.52 439.91 203.41 399.4"/><polyline class="cls-21" points="245.58 447.33 325.89 555.61 322.68 562.62 238.36 447.33"/><polyline class="cls-21" points="206.23 326.58 231.62 363.69 231.21 374.97 203.1 334.47"/><polyline class="cls-21" points="280.92 432.53 302.6 463.69 299.28 468.84 277.71 435.64"/><polyline class="cls-21" points="249.6 315.68 318.66 420.06 318.66 429.41 241.57 314.9"/><path class="cls-23" d="m191.28,365.96c8.29,8.22,41.68-19.42,88.07-22.47,3.46-.23,7.98-.38,9.91-2.97,6-8.07-16.92-34.77-45.79-46.94-29.45-12.42-70.68-12.09-98.75,6.84-23.47,15.83-33.25,41.63-27.95,45.17,7.62,5.08,46.82-35.51,62.91-27.24,9.5,4.88,11.62,27.14,11.11,38.78-.26,5.88-1.1,7.26.48,8.83Z"/><path class="cls-13" d="m116.38,362.58c4.23,0,8.68-1.84,11.67-4.83s5.02-7.56,4.83-11.67-1.59-8.69-4.83-11.67-7.2-4.83-11.67-4.83c-4.23,0-8.68,1.84-11.67,4.83s-5.02,7.56-4.83,11.67,1.59,8.69,4.83,11.67,7.2,4.83,11.67,4.83h0Z"/><path class="cls-22" d="m546.16,110.9c3.68-7.35-5.15-26-15.07-22.29-2.17.81-4.06,2.56-9.47,9.85-5.85,7.87-22.4,31.09-20.42,34.17,1.26,1.97,7.99-7.55,20.98-13.92,14.61-7.17,21.38-2.62,23.98-7.8Z"/><path class="cls-22" d="m525.15,235.22c-5.32-9.63-14.09-25.48-11.06-42.23,7.25-40.09,79.08-68.93,135.47-48.41,26.87,9.78,66.21,36.57,65.43,67.97-1.03,41.43-71.64,80.78-127.17,67.97-7.56-1.74-43.1-9.94-62.67-45.32Z"/><path class="cls-25" d="m528.98,89.97c-8.44,32.43,25.18,67.67,73.4,69.94,47.82,2.26,85.35-29.06,84.84-60.76-.35-21.95-18.92-42.99-45.76-51.57-42.87-13.71-102.92,5.61-112.49,42.39Z"/><path class="cls-2" d="m587.35,86.47c-.46,2.54,3.33,5.8,7.09,5.4,4.81-.51,5.13-5.9,2.84-7.8-2.46-2.03-9.31-1.04-9.93,2.4Z"/><path class="cls-2" d="m628.41,87.83c-.46,2.54,3.33,5.8,7.09,5.4,4.81-.51,5.13-5.9,2.84-7.8-2.46-2.03-9.31-1.04-9.93,2.4Z"/><path class="cls-6" d="m600.72,112c-3.14-6.51-12.84-11.13-20.07-7.75-7.1,3.31-8.79,12.91-4.79,19"/><path class="cls-6" d="m563.79,148.61c-7.48,1.87-14.33,9.51-12.04,17.04,2.17,7.13,11.43,10.49,18.33,9.58,8.39-1.1,16.37-8.93,14.42-16.7-1.92-7.63-12.58-11.96-20.71-9.92Z"/><path class="cls-6" d="m553.9,129.14c-7.48,1.87-14.33,9.51-12.04,17.04,2.17,7.13,11.43,10.49,18.33,9.58,8.39-1.1,16.37-8.93,14.42-16.7-1.92-7.63-12.58-11.96-20.71-9.92Z"/><path class="cls-6" d="m604.77,102.7c-7.48,1.87-14.33,9.51-12.04,17.04,2.17,7.13,11.43,10.49,18.33,9.58,8.39-1.1,16.37-8.93,14.42-16.7-1.92-7.63-12.58-11.96-20.71-9.92Z"/><path class="cls-6" d="m579.86,117.22c-1.92-7.63-12-10.95-19.5-7.41-7.58,3.57-12.66,18.96-10.03,20.46"/><path class="cls-6" d="m655.31,125.07c-7.48,1.87-14.33,9.51-12.04,17.04,2.17,7.13,11.43,10.49,18.33,9.58,8.39-1.1,16.37-8.93,14.42-16.7-1.92-7.63-12.58-11.96-20.71-9.92Z"/><path class="cls-6" d="m629.87,181.4c-7.48,1.87-14.33,9.51-12.04,17.04,2.17,7.13,11.43,10.49,18.33,9.58,8.39-1.1,16.37-8.93,14.42-16.7-1.92-7.63-12.58-11.96-20.71-9.92Z"/><path class="cls-6" d="m609.6,190.16c-7.48,1.87-14.33,9.51-12.04,17.04,2.17,7.13,11.43,10.49,18.33,9.58,8.39-1.1,16.37-8.93,14.42-16.7-1.92-7.63-12.58-11.96-20.71-9.92Z"/><path class="cls-4" d="m590.94,178.34c-7.48,1.87-14.33,9.51-12.04,17.04,2.17,7.13,11.43,10.49,18.33,9.58,8.39-1.1,16.37-8.93,14.42-16.7-1.92-7.63-12.58-11.96-20.71-9.92Z"/><path class="cls-6" d="m576.64,168.37c-7.48,1.87-14.33,9.51-12.04,17.04,2.17,7.13,11.43,10.49,18.33,9.58,8.39-1.1,16.37-8.93,14.42-16.7-1.92-7.63-12.58-11.96-20.71-9.92Z"/><path class="cls-6" d="m559.1,140.56c-7.48,1.87-14.33,9.51-12.04,17.04,2.17,7.13,11.43,10.49,18.33,9.58,8.39-1.1,16.37-8.93,14.42-16.7-1.92-7.63-12.58-11.96-20.71-9.92Z"/><path class="cls-6" d="m632.35,100.05c-7.48,1.87-14.33,9.51-12.04,17.04,2.17,7.13,11.43,10.49,18.33,9.58,8.39-1.1,16.37-8.93,14.42-16.7-1.92-7.63-12.58-11.96-20.71-9.92Z"/><path class="cls-6" d="m654.21,105.89c-7.48,1.87-14.33,9.51-12.04,17.04,2.17,7.13,11.43,10.49,18.33,9.58,8.39-1.1,16.37-8.93,14.42-16.7-1.92-7.63-12.58-11.96-20.71-9.92Z"/><path class="cls-6" d="m651.22,136.81c-7.48,1.87-14.33,9.51-12.04,17.04,2.17,7.13,11.43,10.49,18.33,9.58,8.39-1.1,16.37-8.93,14.42-16.7-1.92-7.63-12.58-11.96-20.71-9.92Z"/><path class="cls-6" d="m552.47,120.82c-3.68,1.14-6.88,6.22-5.54,11.38,1.28,4.89,5.98,7.34,9.4,6.84,4.15-.6,7.92-5.78,6.73-11.11-1.16-5.22-6.6-8.36-10.6-7.12Z"/><path class="cls-6" d="m593.47,103.71c-7.48,1.87-14.33,9.51-12.04,17.04,2.17,7.13,11.43,10.49,18.33,9.58,8.39-1.1,16.37-8.93,14.42-16.7-1.92-7.63-12.58-11.96-20.71-9.92Z"/><path class="cls-6" d="m649.97,150.46c-7.48,1.87-14.33,9.51-12.04,17.04,2.17,7.13,11.43,10.49,18.33,9.58,8.39-1.1,16.37-8.93,14.42-16.7-1.92-7.63-12.58-11.96-20.71-9.92Z"/><path class="cls-6" d="m642.69,168.18c-7.48,1.87-14.33,9.51-12.04,17.04,2.17,7.13,11.43,10.49,18.33,9.58,8.39-1.1,16.37-8.93,14.42-16.7-1.92-7.63-12.58-11.96-20.71-9.92Z"/><path class="cls-6" d="m627.02,197.04c-4.73,1.22-9.04,6.26-7.56,11.24,1.41,4.72,7.29,6.97,11.65,6.39,5.31-.71,10.34-5.86,9.07-11.01-1.25-5.05-8.02-7.95-13.16-6.62Z"/><path class="cls-6" d="m561.81,170.92c-2.29.65-4.32,3.45-3.55,6.26.74,2.66,3.62,3.97,5.74,3.68,2.57-.36,4.96-3.22,4.28-6.12-.66-2.85-3.99-4.52-6.48-3.82Z"/><path class="cls-6" d="m593.09,198.01c-3.7.98-7.06,5.06-5.87,9.11,1.12,3.84,5.74,5.68,9.16,5.22,4.16-.56,8.07-4.73,7.06-8.92-1-4.11-6.32-6.48-10.34-5.42Z"/><path class="cls-6" d="m619.19,99.07c-3.7,1-7.03,5.22-5.82,9.43,1.14,3.99,5.77,5.92,9.19,5.46,4.16-.57,8.05-4.88,7.01-9.23-1.02-4.27-6.36-6.75-10.38-5.66Z"/><path class="cls-6" d="m601.93,107.55c-49.8,7.29-63.61,30.85-35.61,63.22,13.8,15.96,33.38,44.03,55.59,41.1,25.92-3.42,50.74-41.74,45.94-71.35-7.26-44.77-39.54-36.83-65.92-32.97Z"/><path class="cls-6" d="m597.06,106.33c-49.8,7.29-63.61,30.85-35.61,63.22,13.8,15.96,33.38,44.03,55.59,41.1,25.92-3.42,50.74-41.74,45.94-71.35-7.26-44.77-39.54-36.83-65.92-32.97Z"/><path class="cls-6" d="m564.56,152.27c-11.93,9.9-9,22.46,8.27,33.5,8.51,5.44,22.17,15.64,27.58,11.37,6.32-4.98,2.22-25.71-7.72-38.56-15.02-19.43-21.82-11.55-28.14-6.3Z"/><path class="cls-6" d="m579.26,168.2c-10.65,1.89-13.19,9.81-6.5,21.29,3.29,5.65,8.07,15.54,12.83,14.81,5.55-.85,10.19-13.71,8.59-23.95-2.43-15.47-9.27-13.15-14.91-12.15Z"/><path class="cls-6" d="m527.96,84.93c5.3,5.99,15.87,4.6,20.9-1.79,5.08-6.46,2.38-22.38-.67-22.59"/><path class="cls-6" d="m547.03,77.42c3.42,7.13,13.99,8.51,20.64,3.65,6.71-4.91,8.58-20.94,5.7-21.93"/><path class="cls-6" d="m568.38,58.9c-1.59,7.7,6.12,14.75,14.48,14.54,8.44-.21,19.79-12.15,18.06-14.57"/><path class="cls-6" d="m589.07,61.13c2.07,7.97,12.01,11.37,19.24,7.62,7.31-3.79,11.88-19.91,9.27-21.47"/><path class="cls-6" d="m656.36,54.52c-5.91,5.44-3.81,15.44,3.17,19.85,7.05,4.45,23.5.87,23.52-2.06"/><path class="cls-6" d="m606.25,54c.43,7.83,9.71,12.86,17.76,10.69,8.13-2.19,16.07-16.43,13.77-18.36"/><path class="cls-6" d="m626.39,53.11c-3.29,7.19,2.65,15.66,10.86,17.18,8.29,1.53,22.06-7.78,20.92-10.5"/><path class="cls-17" d="m599.48,107.78c-.92,5.03,6.75,11.46,14.37,10.68,9.74-1,10.39-11.68,5.75-15.42-4.98-4.02-18.87-2.06-20.11,4.75Z"/><path class="cls-19" d="m531.54,208.47c3.62,26.4,45.13,49.75,49.12,46.52,22.2-17.98-27.4-26.68-25.85-53.11,2.13-36.28-19.57-28.27-22.49-20.35-.98,2.66-1.61,20.88-.78,26.94Z"/><path class="cls-26" d="m696.53,207.17c4.15,28.07-24.26,64.16-28.48,62.03-23.48-11.86,15.69-35.35,7.2-61.93-11.65-36.48,8.7-34.67,13.3-27.43,1.55,2.44,7.03,20.88,7.98,27.33Z"/><path class="cls-22" d="m656.58,39.47c-48.93-48.76-131.26,3.69-124.64,39.38.55,2.95,10.37-.61,45.35-6.23,35.91-5.77,44.51-7.34,73.07-8.36,28.56-1.02,35.48,4.36,6.23-24.79Z"/><path class="cls-3" d="m592.59,189.11s.86.95.86.95c1.46,1.87,1.6,3.2,2.34,3.19,2.2-.02,5.34,1.01,9.44,1.12.94.02,1.47-.06,2.12.05.43.07,2.77.23,2.9.07.15-.19-.05-1.67.03-1.76,0,0-.76-.72-.76-.72,2.54-1.7.51.25.76.72"/><polygon class="cls-29" points="555.61 204.97 553.97 293.88 676.14 296.93 677.78 208.03 555.61 204.97"/><path class="cls-4" d="m551.08,204.85l4.54.11-4.54-.11Z"/><polygon class="cls-18" points="552.49 188.21 592.91 189.21 607.15 189.56 678.25 191.32 682.22 191.42 681.91 208 677.94 208.04 551 204.76 551.19 188.17 552.49 188.21"/><path class="cls-10" d="m614.84,199.25c9.52,2.95,29.67-3.5,29.35-12.52-.18-5.08-7.38-10.7-14.64-7.29-5.88,2.76-13.33,20.06-14.56,22.07"/><path class="cls-10" d="m643.22,190.33c-4,6.67-18.75,10.97-27.17,9.14,1.15-2.34,3.05-6.26,5.24-10.05,2.6-4.5,5.62-8.81,8.31-10.07,7.26-3.41,14.47,2.2,14.64,7.29.05,1.28-.32,2.52-1.02,3.68Z"/><path class="cls-10" d="m616.05,199.47c-.47.95-.81,1.64-1.01,1.96l-.15-2.26c.37.11.75.22,1.15.3Z"/><path class="cls-9" d="m615.77,198.14l-1.86,8.29-2.73,88.89"/><polyline class="cls-14" points="608.92 193.58 607.15 189.56 592.91 189.21"/><path class="cls-14" d="m593.36,189.31c.24.22-.51-.2-.39,0,.07.11.45.67.56.9.26.54.86.81.99,1.03.09.15.25.37.52.6.52.26,2.77.95,3.65,1.15.57.13,1.1.19,1.54.21,1.54.16,3.08.31,4.63.47,1.42-.02,2.83-.05,4.25-.07"/><path class="cls-12" d="m604.4,194.88c1.93,0,1.93-3,0-3s-1.93,3,0,3h0Z"/><path class="cls-14" d="m604.44,191.9c-.35,0-.71-.05-1.06-.09s-.71-.08-1.07-.12c-.21,0-.4.04-.58.13-.19.06-.35.16-.48.31-.15.14-.25.3-.31.48-.09.18-.14.37-.13.58.02.39.14.79.44,1.06l.3.23c.23.14.49.2.76.2.36.04.71.08,1.07.12s.7.09,1.06.09c.38,0,.79-.17,1.06-.44.15-.14.25-.3.31-.48.09-.18.14-.37.13-.58-.02-.39-.14-.79-.44-1.06s-.65-.43-1.06-.44h0Z"/><path class="cls-14" d="m602.64,191.8c-.27-.03-.54-.07-.82-.11l.4.05c-.65-.09-1.31-.18-1.96-.28-.2-.06-.4-.07-.6-.03-.2,0-.39.07-.56.18-.31.18-.61.54-.69.9-.09.38-.07.81.15,1.16.2.31.52.63.9.69,1.06.16,2.11.3,3.17.44.35.05.82-.2,1.06-.44.26-.26.46-.69.44-1.06s-.14-.79-.44-1.06l-.3-.23c-.23-.14-.49-.2-.76-.2h0Z"/><path class="cls-14" d="m605.52,194.94c1.03,0,2.07.02,3.1.06.38.01.8-.18,1.06-.44s.46-.69.44-1.06c-.04-.84-.66-1.47-1.5-1.5-1.03-.04-2.07-.06-3.1-.06-.38,0-.79.17-1.06.44s-.46.69-.44,1.06c.04.81.66,1.5,1.5,1.5h0Z"/><path class="cls-14" d="m592.02,190.16c.32.57.71,1.1,1.13,1.6.24.28.5.51.8.71.2.14.44.21.63.36l-.3-.23s.03.03.05.04c.3.27.65.44,1.06.44.37,0,.81-.16,1.06-.44s.46-.66.44-1.06-.14-.8-.44-1.06c-.2-.18-.41-.33-.65-.45-.14-.07-.27-.13-.4-.23l.3.23c-.27-.21-.48-.48-.69-.75l.23.3c-.24-.31-.46-.64-.65-.99-.18-.33-.54-.59-.9-.69-.2-.06-.4-.07-.6-.03-.2,0-.39.07-.56.18-.32.21-.6.51-.69.9s-.05.79.15,1.16h0Z"/><path class="cls-14" d="m593.29,191.82c.2.34.47.59.8.8.15.09.31.16.45.25.18.11.34.24.52.35.27.16.57.27.86.38.94.34,1.9.53,2.89.66.35.05.82-.2,1.06-.44.26-.26.46-.69.44-1.06s-.14-.79-.44-1.06l-.3-.23c-.23-.14-.49-.2-.76-.2h-.08c.13,0,.27.03.4.04-.89-.12-1.78-.34-2.62-.67l.36.15c-.26-.11-.48-.28-.72-.44-.2-.13-.43-.22-.62-.36l.3.23s-.08-.07-.12-.12l.23.3s-.04-.06-.06-.09c-.4-.67-1.37-.98-2.05-.54s-.97,1.33-.54,2.05h0Z"/><path class="cls-1" d="m643.24,190c-4,6.67-18.75,10.97-27.17,9.14,1.15-2.34,3.05-6.26,5.24-10.05,2.6-4.5,5.62-8.81,8.31-10.07,7.26-3.41,14.47,2.2,14.64,7.29.05,1.28-.32,2.52-1.02,3.68Z"/><path class="cls-1" d="m595.97,175.08c7.06,1.17,16.94,14.62,19.18,24.22-2.36-.15-6.31-.37-10.28-.95-4.71-.7-9.46-1.91-11.64-4.15-5.89-6.04-4.59-16.06-.63-18.53,1-.62,2.14-.79,3.37-.59Z"/><path class="cls-15" d="m622.03,189.8c11.56,1.59,20.19,1.73,21.03.17.27-.5.47-1.05.47-1.05.56-1.53.59-3.01.52-3.7-.27-2.72-3.18-4.43-4.87-5.42-1.69-.99-3.72-2.18-6.29-1.75-2.26.39-3.69,1.82-5.95,4.09-1.36,1.37-3.26,3.55-5.09,6.76"/><path class="cls-15" d="m607.51,189.39c-10,.26-16.72,1.18-17.37-.43-.21-.52-.41-2.75-.41-2.75-.42-1.56-.39-3.06-.31-3.75.32-2.73,1.67-5.23,3.12-6.14,1.45-.92,4.81-1.94,6.52-.35,1.66,1.54,2.9,2.24,4.81,4.18,1.24,1.26,4.81,5.99,6.24,9.31"/><path class="cls-3" d="m401.07,695.05s1,1.14,1,1.14c1.7,2.25,1.88,3.87,2.72,3.84,2.49-.09,6.07,1.08,10.73,1.08,1.07,0,1.66-.11,2.41,0,.49.07,3.14.2,3.28,0,.17-.24-.1-2.05,0-2.17,0,0-.88-.86-.88-.87,2.85-2.17.58.29.88.87"/><polygon class="cls-20" points="359.47 715.62 359.47 824.71 498.06 824.73 498.06 715.67 359.47 715.62"/><path class="cls-4" d="m354.32,715.62h5.15-5.15Z"/><polygon class="cls-7" points="355.58 695.16 401.43 695.16 417.59 695.16 498.24 695.16 502.74 695.16 502.74 715.5 498.24 715.67 354.24 715.5 354.11 695.16 355.58 695.16"/><path class="cls-9" d="m425.53,715.58l.93,109.15"/><path class="cls-8" d="m425.48,707.94c-1.51-14.57-16.07-37.07-24.02-30.72-4.47,3.58-6.36,16.82-.14,24.22,5.03,5.99,23.78,4.51,26.12,4.81"/><path class="cls-15" d="m426.51,706.81c10.86,3.32,33.57-5.19,33.02-16.25-.31-6.22-8.59-12.89-16.75-8.49-6.61,3.56-14.7,25-16.04,27.51"/><path class="cls-9" d="m427.54,703.72c-3.19,18.99-1.93,10.22-1.93,10.22"/><path class="cls-30" d="m1021.75,253.1c2.69,0,5.52-1.17,7.42-3.08s3.19-4.81,3.08-7.42c-.25-5.69-4.61-10.5-10.5-10.5-2.69,0-5.52,1.17-7.42,3.08s-3.19,4.81-3.08,7.42c.25,5.69,4.61,10.5,10.5,10.5h0Z"/><path class="cls-30" d="m1260.75,660.1c2.69,0,5.52-1.17,7.42-3.08s3.19-4.81,3.08-7.42c-.25-5.69-4.61-10.5-10.5-10.5-2.69,0-5.52,1.17-7.42,3.08s-3.19,4.81-3.08,7.42c.25,5.69,4.61,10.5,10.5,10.5h0Z"/><path class="cls-30" d="m910.75,673.1c2.69,0,5.52-1.17,7.42-3.08s3.19-4.81,3.08-7.42c-.25-5.69-4.61-10.5-10.5-10.5-2.69,0-5.52,1.17-7.42,3.08s-3.19,4.81-3.08,7.42c.25,5.69,4.61,10.5,10.5,10.5h0Z"/><path class="cls-30" d="m1119.75,918.1c2.69,0,5.52-1.17,7.42-3.08s3.19-4.81,3.08-7.42c-.25-5.69-4.61-10.5-10.5-10.5-2.69,0-5.52,1.17-7.42,3.08s-3.19,4.81-3.08,7.42c.25,5.69,4.61,10.5,10.5,10.5h0Z"/><path class="cls-30" d="m1119.75,918.1c2.69,0,5.52-1.17,7.42-3.08s3.19-4.81,3.08-7.42c-.25-5.69-4.61-10.5-10.5-10.5-2.69,0-5.52,1.17-7.42,3.08s-3.19,4.81-3.08,7.42c.25,5.69,4.61,10.5,10.5,10.5h0Z"/><path class="cls-30" d="m1313.75,756.1c2.69,0,5.52-1.17,7.42-3.08s3.19-4.81,3.08-7.42c-.25-5.69-4.61-10.5-10.5-10.5-2.69,0-5.52,1.17-7.42,3.08s-3.19,4.81-3.08,7.42c.25,5.69,4.61,10.5,10.5,10.5h0Z"/><path class="cls-30" d="m302.75,234.1c2.69,0,5.52-1.17,7.42-3.08s3.19-4.81,3.08-7.42c-.25-5.69-4.61-10.5-10.5-10.5-2.69,0-5.52,1.17-7.42,3.08s-3.19,4.81-3.08,7.42c.25,5.69,4.61,10.5,10.5,10.5h0Z"/><path class="cls-30" d="m655.75,397.1c2.69,0,5.52-1.17,7.42-3.08s3.19-4.81,3.08-7.42c-.25-5.69-4.61-10.5-10.5-10.5-2.69,0-5.52,1.17-7.42,3.08s-3.19,4.81-3.08,7.42c.25,5.69,4.61,10.5,10.5,10.5h0Z"/><path class="cls-13" d="m501.29,142.77c2.69,0,5.52-1.17,7.42-3.08s3.19-4.81,3.08-7.42c-.25-5.69-4.61-10.5-10.5-10.5-2.69,0-5.52,1.17-7.42,3.08s-3.19,4.81-3.08,7.42c.25,5.69,4.61,10.5,10.5,10.5h0Z"/></svg>